<?xml version="1.0" encoding="UTF-8"?>
<svg id="a" data-name="Calque 1" xmlns="http://www.w3.org/2000/svg" viewBox="0 0 2014.27 1090.9">
  <g>
    <path d="m11.7,8.26c4.59-5.26,34.42-2.4,49.5,3.12,10.81,3.96,19.78,3.45,30.27-1.01,16.03-6.81,33.23-7.49,50.09-.17,11.45,4.98,23.11,6.4,36.27,1.44,13.29-5.01,27.84-4.48,41.84-.82,14.14,3.7,27.91,4.11,42.04.11,10.35-2.93,22.39-4.26,32.43-2.01,19.71,4.42,36.88,2.87,54.75-2.91,10.89-3.53,22.94-2.91,33.6,1.3,12.27,4.85,24.28,5.27,36.78.3,3.39-1.35,8.21-3.33,11.25-2.79,32.5,5.79,66.4-.39,98.68,4.21,10.09,1.44,18.16,3.07,26.99-1.08,3.17-1.49,8.03-3.54,11.03-3.04,26.06,4.38,52.73.38,78.85,2.54,1.85.15,4.23,2.14,5.1,1.86,28.19-8.93,58.65,4.23,86.87-3.21,21.35-5.63,40.43.55,41.11,14.07,1.78,35.27,2.97,70.56,13.68,105.41,1.2,3.9.37,5.51-7.44,6.4-33.65,3.83-36.23,6.56-35.86,26.59,2.31,124.97,4.03,249.94,6.46,374.9,3.4,175.11,7.2,350.22,11.07,525.33.18,8.15-1.57,10.68-15.82,6.02-27.27-8.92-32.35-7.98-54.41,5.76-13.25,8.26-36.74,10.92-55.72,6.58-10.62-2.43-18.97-6.59-27.16-11.09-23.5-12.9-29.12-12.02-39.96,6.19-5.48,9.21-15.98,14.21-32.65,14.04-19.89-.19-38.05-2.74-52.17-12.18-15.89-10.61-23.8-9.98-36.22,1.82-8.52,8.1-21.85,6.35-33.55,4.45-15.69-2.55-24.82-9.79-31.07-18.56-3.55-4.98-4.91-12.83-17.55-11.62-11.24,1.08-12.41,8.55-13.62,14-2.75,12.48-14.54,19.95-33.51,24.29-25.15,5.75-44.83.96-55.25-14-5.46-7.83-13.77-13.92-28.32-14.13-12.79-.19-22.24,3.37-29.23,11.15-13.94,15.5-52.21,19.56-71.08,7.12-18.77-12.37-38.23-11.79-59.45-5.2-16.18,5.02-20.31,2.07-21.3-7.64-5.25-51.34-1.81-102.75-4.11-154.11-4.62-103.16-1.63-206.36-3.17-330.66,0-130.18-.15-281.47.35-432.77.03-9.83-4.35-13.29-21.02-12.14-3.51.24-7.05.29-10.49.07-12.35-.79-21.05-7.65-20.53-15.01C1.9,94.5,9.07,11.28,11.7,8.26Zm-6.71,104.14c1.77,17.56,8.77,23.01,37.29,18.84,25.62-3.74,48.9-8.79,73.88.71,6.49,2.47,16.34.96,23.94-1.63,6.08-2.07,12.25-3.95,19.53-3.55,10.38.57,10.1-2.8,9.96-7.66-.74-25.48-.75-50.97-.68-76.45,0-3.07-2.36-6.93,3.68-9.85,6.15,5.24,3.56,10.32,3.85,15.08,1.56,25.86-1.13,51.73,2.38,77.63,1.51,11.16,10.22,12.26,25.17,11.94,16.46-.35,23.05-4.36,23.13-14.4.23-28.24-7.69-56.37-2.54-84.7,10.6,27.06,6.95,55.03,13.82,82.36,1.95-13.38,1.61-26.69,2.05-39.99.43-12.92-2.61-26.06,4.92-38.68,2.67,23.08,2.02,46.09,2.86,69.07.83,22.77,27.13,31.11,60.28,19.69,5.36-1.85,10.51-4.37,17.13-3.89,12.69.91,14.26-2.68,13.98-9.35-.87-20.59-.32-41.2-.32-61.8,3.01,1.01,3.6,2.1,3.99,3.2,7.53,21.54.89,43.53,5.94,65.13,1.31,5.61-.32,13.57,16.01,12.61,14.14-.83,20.11-5.75,19.9-14.2-.58-23.84-.53-47.68-.86-71.52-.09-6.56-5.64-13.04-1.61-20.45,8.52,5.01,5.9,10.65,6.45,15.77,2.5,23.37,5.22,46.74,3.93,70.18-.26,4.66,1.15,8.12,11.03,7.98,10.95-.16,9.4-4.69,9.22-8.73-.07-1.62-1.17-3.23-1.38-4.86-3.74-28.7-1.17-57.37-2.09-88.14,10.19,5.54,7.86,10.36,7.84,14.56-.14,28.77.71,57.51,4.04,86.23.9,7.75,1.9,13.97,18.49,14.03,17.33.06,20-6.04,19.85-14.6-.45-25.07-.29-50.15.09-75.23.06-3.86-3.53-8.86,7.65-12.29,0,12.58-.01,24.04,0,35.51.02,14.8-.23,29.6.3,44.4.12,3.39-3.99,9.3,8.07,8.87,10.85-.39,7.23-5.72,7.83-9.45.26-1.63-.01-3.29-.01-4.93,0-27.85,0-55.7,0-85.03,7.01,3.74,4.75,6.71,4.79,9.32.46,29.59.65,59.19,1.07,88.79.12,8.67,3.63,15.03,22.43,14.34,18.07-.67,18.59-6.96,18.46-15.13-.46-28.67-.18-57.34-.18-86,4.04,4.27,3.87,8.6,4.07,12.92,1.07,23.82,2.17,47.65,3.44,71.47.16,3-2.02,7.65,6.21,7.6,8.6-.06,11.46-3.82,9.67-8.72-.44-1.2-.86-2.44-.87-3.66-.05-27.36-.04-54.73-.04-82.09,6.86,19.37,5.58,39.02,6.23,58.61.4,11.9-.42,23.78,3.21,35.65,1.92,6.28,7.87,8.33,16.84,8.54,9.14.22,14.04-2.93,14.72-8.27.84-6.54,2.08-13.09,2.07-19.63-.05-28.27-5.35-56.51-1.12-84.88,9.25,15.94,2.48,32.97,12.35,49.13v-32.71c4.64,2.98,5.02,5.77,4.58,8.52-4.38,27.11-.73,54.18.93,81.26.54,8.72,9.86,9.49,21.1,9.8,13.51.38,13.85-4.8,13.79-10.51-.04-4.11.4-8.22.41-12.33.04-28.71.02-57.43.02-86.14,10.89,32.25,5.31,65.15,11.1,97.71,7.31-30.62.2-61.73,10.26-92.15-.3,30.04.45,60,1.16,89.97.26,10.86,11.03,12.03,23.72,12.41,14.39.43,16.16-5.57,15.92-12.44-.54-14.79-.7-29.58-.84-44.37-.13-13.25-.03-26.5-.03-39.75,1.17-.02,2.33-.03,3.5-.05,2.32,27.72,4.64,55.45,6.96,83.17,1.83-.06,3.65-.13,5.48-.19,2.72-30.3-4-60.78,2.66-91.01,2.19,4.07,2.02,8.12,2.22,12.16,1.3,26.28,2.37,52.57,4.19,78.84.82,11.84,7.22,12.84,24.97,8.1,19.54-5.22,26.62-12.08,21.04-24.63-3.66-8.22-3.87-16.99-5.01-25.58-2.68-20.1-3.53-40.19-4.09-60.32-.29-10.24-12.29-17.14-24.08-13.14-18.43,6.25-35.11,5.1-53.28,1.11-8.89-1.95-17.93-.64-25.91,2.25-8.52,3.08-15.59.98-24.55.04-24.15-2.53-49.99-2.45-73.7-1.71-18.03.56-35.02,1.37-53.72.94-26.46-.6-53.8-2.85-78.9-1.8-24.69,1.03-47.8,7.8-71.64-1.61-.95-.38-3.06-.35-4.05.02-26.3,10.02-54.57,7.6-83.11,5.13-5-.43-10.75,1.31-15.88,2.48-15.74,3.58-31.22,3.43-46.36-.9-11.56-3.31-22.91-3.24-33.76.59-15.51,5.48-30.39,5.1-44.46-1.35-14.16-6.49-27.85-6.09-41.81-.05-12.46,5.39-25.26,6.2-38.54,1.03-13.28-5.17-27.03-5.54-41.28-1.45m466.28,124.67c0,69.61.58,137.41-.11,205.2-2.07,204.3-4.54,408.61,2.45,612.89,1.22,35.68,2.26,71.48,10.36,106.94,2.96,12.95,22.37,19.48,47.55,17.9,17.67-1.11,24.8-7.21,25.09-21.48.05-2.47.07-4.93.05-7.4-2.83-274.19-5.65-548.38-8.49-822.56-.3-28.77-.73-57.54-1.02-86.31-.04-4.19-.15-8.55-6.27-11.2-4.78-2.07-9.73.24-13.01,2.11-15.61,8.9-33.56,7.88-56.6,3.93Zm-242.63-9.4c1.05,6.98,2.33,12.19,2.55,17.41,2.06,47.24,1.34,94.5,3.96,141.76,4.69,84.61,5.74,169.29,8.32,253.93,3.15,103.55,6.1,207.11,9.55,310.66,2.34,70.26,5.3,140.52,8.23,210.78.57,13.6,14,22.35,32.99,22.43,20.61.08,41.31-10.39,43-22.18.93-6.52,1.09-13.11.85-19.66-4.79-127.78-9.28-255.57-14.7-383.34-4.91-115.83-10.96-231.64-16.26-347.47-1.9-41.49-2.91-82.99-4.67-124.48-.63-14.78-2.19-29.55-3.54-44.32-.26-2.85,1.92-8.09-7.53-6.06-23.18,4.98-40.96-2.15-62.75-9.47Zm449.43,481.29c-2.06-48.66-1.34-90.96-3.04-133.28-3.71-92.82-4.19-185.68-6.28-278.51-.38-16.83-2.72-33.65-3-50.49-.11-6.67-7.56-9.8-14.68-12.29-7.9-2.76-6.37,3.72-9.97,5.58-4.15,2.15-8.67,2.84-13.4,2.36-19.98-2.05-21.82,4.37-21.74,14.05.27,34.92-1.12,69.84-1.29,104.76-.83,172.16-2.37,344.31-1.82,516.47.3,92.8-.22,185.65,11.26,278.33,1.13,9.16,8.19,13.61,20.77,16.01,28.53,5.45,50.61-4.35,50.74-21.98,1.09-149.15-4.15-298.26-7.55-441.01ZM167.4,221.29c-.82,0-1.65,0-2.47-.01,0-26.69-.47-53.39.23-80.07.29-10.9-5.83-12.51-20.35-6.91-6.65,2.56-14.74,3.77-21.91,2.9-19.3-2.34-21.02,3.35-18.37,12.24.95,3.19.31,6.56.38,9.85,2.57,121.61,4.88,243.22,7.8,364.82,2.32,96.54,4.84,193.07,8.34,289.6,2.46,67.75,6.44,135.48,10.35,203.21.92,15.96,3.34,31.95,6.87,47.78,3.15,14.14,20.33,19.53,43.33,14.87,21.48-4.35,27.97-9.98,26.96-29.37-2.38-45.99-3.2-91.99-5.59-137.99-5.94-114.13-14.5-228.19-20.96-342.3-6.58-116.17-9.87-232.41-14.6-348.63Zm275.12,387.9c-3.88-149.13-7.9-298.25-11.33-447.39-.24-10.58-2.78-19.51-14.94-27.95-8.7-6.04-15.52-5.73-24.15-1.64-12.03,5.7-13.21,13.57-13.06,22.18,3.08,179.15,1.1,358.31,5.03,537.47,2.62,119.14,2.79,238.31,8.7,357.43.43,8.7,4.54,16.13,15.53,21.94,9.34,4.93,20.34,7.69,32.46,4.61,11.03-2.8,6.57-9.3,6.67-14.27,2.93-150.81-2.22-301.59-4.9-452.37Zm-179.23,449.98c-9.37-307.53-18.73-614.44-28.14-923.1-17.04,6.21-32.15,7.72-47.19,5.5-13.67-2.02-15.64.58-15.36,8.06,1.89,50.53,2.24,101.09,4.55,151.61,5.1,111.72,10.23,223.45,17.07,335.14,2.66,43.51,4.74,87.05,8.15,130.54,7.04,89.9,11.36,179.83,13.66,269.81.16,6.09-3.56,13.03,2.65,18.06,6.04,4.9,16.92.09,25.44,1.39,5.95.91,11.89,1.85,19.18,2.99Zm485.22-495.25c-1.64-99.41-3.89-236.67-6.17-373.93-.22-13.15-1.29-26.31-.57-39.44.4-7.2-6.02-11.94-13.83-15.63-10.39-4.91-10.6,4.08-16.7,5.51-2.57.6-5.14,1.86-7.64,1.8-20.74-.52-19.87,7.51-19.56,16.19,2.9,81.75,5.77,163.49,8.08,245.25,2.99,105.59,5.94,211.19,8.05,316.79,2.12,106.03,3.37,212.06,4.43,318.09.11,10.67-2.88,20.82,24.54,16.33,2.88-.47,6.98.5,9.9,1.46,20.32,6.69,19.99-.53,19.79-9.52-3.36-148.35-6.41-296.7-10.33-482.9Zm-645.77-8.56c0-18.48.2-36.97-.03-55.45-1.52-118.79-3.19-237.59-4.58-356.38-.09-7.71-1.01-14.67-17.79-14.09-14.99.52-21.81,5.85-21.07,14.88.68,8.21.69,16.44.7,24.66.41,288.17-2.07,576.34,4.6,864.49.24,10.27.64,20.54,1.19,30.81.32,6.02,4.27,8.35,14.09,4.6,10.94-4.17,23.34-6.13,35.76-4.16,11.85,1.88,13.28.57,12.67-6.61-4.99-59.08-10.91-118.16-12.96-177.28-3.77-108.48-9.77-216.94-12.57-325.46Zm270.99,40.28c0-81.78.16-163.55-.05-245.33-.17-65.76-.71-131.51-1.49-197.26-.05-4.09,5.58-11.05-8.42-11.36-10.02-.23-16.93-2.6-22.86-7.06-4.99-3.75-11.87-3.92-18.88-2.3-8.19,1.89-8.51,6.27-7.75,10.37,7.05,38.02,4.24,76.27,7.67,114.38,4.24,47.14,5.6,94.38,7.97,141.57,4.48,89.09,8.99,178.18,13.12,267.28,2.7,58.31,4.88,116.63,7.01,174.95,2.37,64.9,4.29,129.81,6.96,194.71.15,3.74-6.93,10.94,11.27,10.3,13.91-.49,17.22-2.32,16.3-10.15-1.91-16.39-3.22-32.84-3.3-49.26-.58-130.28-7.12-260.53-7.54-390.82Zm242.11,464.25c4.06-8.18-1.67-14.82-1.94-21.67-2.35-60.79-6.39-121.58-7.31-182.38-3.54-235.09.3-470.18,3.41-705.26.19-14.64.32-14.61-22.06-10.78-3.3.56-7.13,1.35-10.18.86-14.9-2.37-13.93,3.18-13.54,8.89,6.11,87.91,3.1,175.88,4.85,263.81,3.46,173.84,4.78,347.69,6.8,521.54.42,36.17-.11,72.34.2,108.51.03,3.52-4.16,10.52,5.58,9.8,13.72-1.01,23.59,2.29,34.19,6.67Zm-164.73-456.86c2.51,139.76,6.4,279.52,5.28,419.29-.09,11.1-.08,22.21-.83,33.29-.77,11.37,15.32,5.42,22.77,7.31,10.96,2.78,6.66-4.04,6.44-6.84-.88-11.07-3.36-22.11-3.82-33.19-2.84-67.79-6.62-135.58-7.62-203.38-3.18-215.42-.23-430.82,5.48-646.21.34-12.74,1.19-25.47,1.59-38.21.06-1.87.89-4.32-3.48-5.17-4.1-.8-6.4.83-8.23,2.65-3.59,3.58-7.53,7.99-14.52,8.25-17.7.65-16.28,7.35-16.06,14.67,4.44,149.18,8.69,298.36,12.98,447.55Z"/>
    <path d="m307.19,113.05V41.44c7.96,23.82,7.13,47.69,5.22,71.57-1.74.01-3.48.02-5.22.03Z"/>
    <path d="m65.7,36.13c7.04,24.58,8.02,49.19,0,73.84V36.13Z"/>
    <path d="m90.21,108.11V34.99c4.27,24.4,4.84,48.81,0,73.12Z"/>
  </g>
  <g>
    <path d="m1244.04,11.49c4.52-5.23,33.92-2.39,48.78,3.1,10.65,3.94,19.49,3.44,29.83-1,15.8-6.79,32.75-7.46,49.36-.16,11.29,4.96,22.78,6.37,35.74,1.44,13.1-4.99,27.43-4.47,41.23-.82,13.94,3.69,27.51,4.1,41.43.11,10.2-2.92,22.07-4.25,31.96-2,19.42,4.4,36.35,2.86,53.96-2.9,10.74-3.51,22.6-2.9,33.11,1.3,12.09,4.83,23.93,5.25,36.25.3,3.34-1.34,8.09-3.31,11.09-2.78,32.03,5.77,65.44-.39,97.24,4.2,9.94,1.43,17.9,3.06,26.6-1.08,3.12-1.48,7.92-3.53,10.87-3.03,25.68,4.36,51.97.38,77.71,2.53,1.83.15,4.17,2.13,5.02,1.86,27.78-8.9,57.8,4.22,85.61-3.19,21.04-5.61,39.84.55,40.51,14.02,1.75,35.13,2.93,70.27,13.48,104.98,1.18,3.89.37,5.49-7.33,6.38-33.16,3.82-35.7,6.53-35.34,26.48,2.28,124.46,3.97,248.92,6.37,373.37,3.35,174.4,7.09,348.79,10.91,523.19.18,8.12-1.54,10.64-15.59,5.99-26.88-8.89-31.88-7.95-53.62,5.74-13.06,8.22-36.21,10.87-54.91,6.55-10.47-2.42-18.7-6.57-26.77-11.04-23.16-12.84-28.7-11.97-39.38,6.16-5.4,9.17-15.75,14.15-32.17,13.99-19.6-.19-37.5-2.73-51.42-12.13-15.66-10.57-23.45-9.94-35.69,1.81-8.4,8.06-21.53,6.33-33.07,4.43-15.47-2.54-24.46-9.75-30.62-18.49-3.49-4.96-4.84-12.78-17.29-11.57-11.08,1.07-12.23,8.51-13.42,13.95-2.71,12.43-14.33,19.87-33.02,24.19-24.78,5.73-44.18.96-54.45-13.95-5.38-7.8-13.57-13.86-27.91-14.07-12.61-.19-21.91,3.35-28.81,11.1-13.74,15.43-51.45,19.48-70.05,7.09-18.5-12.32-37.68-11.74-58.59-5.18-15.94,5-20.01,2.06-20.99-7.6-5.17-51.13-1.78-102.33-4.05-153.49-4.56-102.74-1.61-205.52-3.13-329.31,0-129.64-.15-280.32.35-431,.03-9.79-4.29-13.23-20.72-12.09-3.46.24-6.95.29-10.34.07-12.17-.78-20.74-7.62-20.24-14.94,1.85-26.62,8.91-109.49,11.51-112.5Zm-6.62,103.72c1.74,17.49,8.65,22.92,36.75,18.77,25.24-3.73,48.19-8.75,72.81.71,6.39,2.46,16.1.96,23.59-1.62,5.99-2.06,12.07-3.93,19.24-3.53,10.23.57,9.95-2.79,9.81-7.63-.73-25.38-.74-50.76-.67-76.14,0-3.06-2.32-6.9,3.63-9.81,6.06,5.22,3.51,10.28,3.79,15.02,1.54,25.75-1.11,51.52,2.35,77.31,1.49,11.11,10.08,12.21,24.81,11.89,16.22-.35,22.72-4.34,22.8-14.34.23-28.13-7.57-56.14-2.5-84.36,10.45,26.95,6.85,54.8,13.62,82.02,1.92-13.33,1.59-26.58,2.02-39.83.42-12.87-2.57-25.95,4.85-38.52,2.63,22.99,1.99,45.9,2.81,68.79.82,22.68,26.73,30.98,59.4,19.61,5.28-1.84,10.36-4.35,16.89-3.88,12.51.9,14.06-2.67,13.78-9.31-.86-20.51-.31-41.03-.31-61.55,2.97,1.01,3.55,2.09,3.93,3.19,7.42,21.45.87,43.36,5.86,64.86,1.3,5.59-.32,13.51,15.78,12.56,13.94-.83,19.81-5.73,19.61-14.14-.58-23.74-.52-47.49-.85-71.23-.09-6.53-5.56-12.99-1.59-20.37,8.39,4.99,5.82,10.6,6.35,15.7,2.46,23.27,5.15,46.55,3.87,69.9-.25,4.64,1.13,8.09,10.87,7.95,10.79-.16,9.26-4.67,9.08-8.7-.07-1.62-1.15-3.21-1.36-4.84-3.68-28.58-1.15-57.14-2.06-87.78,10.04,5.52,7.75,10.31,7.73,14.5-.13,28.66.7,57.28,3.98,85.88.88,7.71,1.87,13.91,18.22,13.98,17.08.06,19.71-6.02,19.56-14.54-.44-24.97-.28-49.95.09-74.92.06-3.84-3.48-8.83,7.54-12.24,0,12.53-.01,23.95,0,35.36.02,14.74-.23,29.48.3,44.21.12,3.37-3.93,9.27,7.95,8.83,10.69-.39,7.12-5.7,7.72-9.42.26-1.62-.01-3.27-.01-4.91,0-27.74,0-55.47,0-84.69,6.91,3.73,4.68,6.69,4.72,9.28.46,29.47.64,58.95,1.05,88.42.12,8.64,3.58,14.97,22.11,14.28,17.8-.66,18.32-6.93,18.19-15.07-.45-28.55-.18-57.1-.18-85.65,3.98,4.25,3.82,8.56,4.01,12.87,1.06,23.73,2.14,47.45,3.39,71.18.16,2.98-1.99,7.62,6.12,7.57,8.47-.06,11.29-3.81,9.53-8.69-.43-1.2-.85-2.43-.85-3.64-.05-27.25-.04-54.5-.04-81.75,6.76,19.29,5.5,38.87,6.14,58.37.39,11.85-.41,23.68,3.16,35.5,1.89,6.26,7.75,8.3,16.59,8.51,9.01.22,13.83-2.92,14.5-8.23.82-6.51,2.05-13.04,2.04-19.55-.05-28.16-5.28-56.28-1.1-84.53,9.12,15.88,2.45,32.83,12.17,48.93v-32.58c4.57,2.97,4.95,5.75,4.51,8.48-4.32,27-.72,53.95.92,80.93.53,8.68,9.72,9.45,20.79,9.76,13.31.38,13.65-4.79,13.59-10.46-.04-4.09.39-8.18.4-12.28.04-28.6.02-57.19.02-85.79,10.73,32.12,5.23,64.89,10.94,97.31,7.21-30.49.2-61.48,10.11-91.78-.29,29.91.44,59.75,1.15,89.6.26,10.81,10.87,11.99,23.38,12.36,14.18.43,15.93-5.55,15.68-12.39-.53-14.73-.69-29.46-.83-44.19-.13-13.2-.03-26.39-.03-39.59,1.15-.02,2.3-.03,3.45-.05,2.28,27.61,4.57,55.22,6.85,82.83,1.8-.06,3.6-.12,5.4-.19,2.68-30.17-3.94-60.53,2.62-90.64,2.16,4.05,1.99,8.09,2.19,12.11,1.29,26.17,2.34,52.36,4.13,78.52.81,11.8,7.12,12.79,24.61,8.07,19.26-5.2,26.24-12.03,20.74-24.53-3.6-8.19-3.81-16.92-4.94-25.48-2.64-20.02-3.48-40.03-4.04-60.08-.28-10.2-12.11-17.07-23.73-13.09-18.17,6.23-34.6,5.08-52.51,1.11-8.76-1.94-17.67-.63-25.54,2.24-8.4,3.07-15.37.97-24.19.04-23.8-2.52-49.26-2.44-72.63-1.71-17.77.55-34.51,1.36-52.94.94-26.08-.6-53.02-2.84-77.76-1.8-24.34,1.03-47.1,7.77-70.61-1.61-.94-.37-3.02-.35-3.99.02-25.92,9.97-53.78,7.57-81.9,5.11-4.92-.43-10.6,1.3-15.65,2.47-15.51,3.57-30.77,3.42-45.69-.9-11.39-3.3-22.58-3.23-33.27.59-15.29,5.46-29.95,5.08-43.81-1.34-13.95-6.46-27.45-6.07-41.2-.05-12.28,5.37-24.89,6.18-37.98,1.03-13.09-5.15-26.64-5.51-40.68-1.44m459.51,124.16c0,69.33.57,136.85-.11,204.36-2.04,203.47-4.47,406.94,2.42,610.39,1.2,35.53,2.23,71.19,10.21,106.5,2.91,12.9,22.05,19.4,46.86,17.83,17.42-1.1,24.44-7.18,24.73-21.39.05-2.46.07-4.91.05-7.37-2.78-273.07-5.57-546.14-8.37-819.21-.29-28.65-.72-57.31-1.01-85.96-.04-4.17-.15-8.52-6.18-11.16-4.71-2.06-9.59.24-12.82,2.1-15.39,8.86-33.07,7.84-55.78,3.91Zm-239.11-9.36c1.04,6.96,2.29,12.14,2.52,17.34,2.03,47.05,1.32,94.11,3.91,141.19,4.63,84.26,5.66,168.6,8.2,252.9,3.11,103.13,6.01,206.26,9.41,309.39,2.31,69.98,5.22,139.95,8.11,209.92.56,13.55,13.8,22.26,32.51,22.33,20.31.08,40.71-10.35,42.37-22.09.92-6.5,1.08-13.06.84-19.58-4.72-127.26-9.15-254.52-14.48-381.77-4.84-115.36-10.8-230.7-16.02-346.05-1.87-41.32-2.86-82.65-4.6-123.98-.62-14.72-2.15-29.43-3.49-44.14-.26-2.83,1.9-8.06-7.42-6.03-22.84,4.96-40.37-2.14-61.84-9.43Zm442.91,479.32c-2.03-48.46-1.32-90.59-2.99-132.73-3.66-92.44-4.13-184.92-6.19-277.38-.37-16.77-2.68-33.52-2.96-50.28-.11-6.65-7.45-9.76-14.47-12.24-7.78-2.75-6.28,3.71-9.82,5.56-4.09,2.14-8.55,2.83-13.2,2.35-19.69-2.04-21.5,4.35-21.43,14,.26,34.78-1.1,69.56-1.27,104.33-.82,171.45-2.34,342.91-1.79,514.36.29,92.42-.22,184.9,11.1,277.19,1.12,9.12,8.07,13.55,20.46,15.94,28.12,5.42,49.88-4.33,50.01-21.89,1.07-148.54-4.09-297.04-7.44-439.21Zm-514.41-387.81c-.81,0-1.63,0-2.44-.01,0-26.58-.47-53.17.23-79.75.28-10.86-5.75-12.46-20.05-6.88-6.55,2.55-14.52,3.76-21.6,2.89-19.02-2.33-20.72,3.34-18.1,12.19.94,3.18.3,6.53.37,9.81,2.54,121.11,4.8,242.22,7.69,363.33,2.29,96.14,4.77,192.29,8.22,288.42,2.42,67.47,6.35,134.93,10.2,202.38.91,15.89,3.29,31.82,6.77,47.58,3.11,14.09,20.03,19.45,42.7,14.81,21.16-4.33,27.56-9.94,26.57-29.25-2.34-45.8-3.15-91.62-5.51-137.42-5.85-113.66-14.29-227.26-20.66-340.9-6.48-115.7-9.73-231.47-14.39-347.2Zm271.13,386.32c-3.82-148.52-7.78-297.04-11.16-445.56-.24-10.54-2.74-19.43-14.72-27.83-8.58-6.01-15.3-5.71-23.8-1.64-11.85,5.68-13.02,13.51-12.87,22.09,3.03,178.42,1.08,356.85,4.96,535.28,2.58,118.66,2.75,237.33,8.57,355.97.43,8.67,4.47,16.06,15.3,21.85,9.2,4.91,20.05,7.65,31.98,4.59,10.87-2.79,6.48-9.26,6.57-14.21,2.88-150.19-2.19-300.36-4.83-450.53Zm-176.63,448.14c-9.24-306.27-18.46-611.93-27.73-919.34-16.79,6.19-31.68,7.69-46.51,5.47-13.48-2.02-15.41.58-15.13,8.03,1.86,50.33,2.21,100.67,4.48,150.99,5.02,111.27,10.08,222.54,16.82,333.78,2.62,43.34,4.67,86.69,8.03,130.01,6.94,89.53,11.19,179.1,13.46,268.71.15,6.06-3.51,12.97,2.61,17.99,5.95,4.88,16.68.09,25.07,1.38,5.86.91,11.71,1.84,18.9,2.98Zm478.18-493.23c-1.61-99-3.84-235.71-6.08-372.41-.21-13.1-1.27-26.21-.56-39.28.39-7.17-5.94-11.89-13.62-15.56-10.24-4.89-10.45,4.06-16.46,5.49-2.53.6-5.07,1.85-7.53,1.79-20.44-.52-19.58,7.48-19.28,16.12,2.86,81.41,5.68,162.83,7.97,244.25,2.95,105.16,5.85,210.33,7.93,315.5,2.09,105.59,3.32,211.2,4.37,316.8.11,10.63-2.84,20.74,24.18,16.27,2.84-.47,6.88.5,9.76,1.45,20.03,6.66,19.7-.53,19.5-9.48-3.31-147.74-6.32-295.49-10.18-480.93Zm-636.4-8.53c0-18.41.2-36.82-.03-55.23-1.5-118.31-3.14-236.62-4.52-354.93-.09-7.68-.99-14.61-17.54-14.03-14.77.51-21.5,5.83-20.76,14.82.67,8.17.68,16.37.69,24.56.4,286.99-2.04,573.99,4.53,860.97.23,10.23.63,20.46,1.17,30.69.32,5.99,4.21,8.31,13.89,4.58,10.78-4.15,23-6.1,35.24-4.14,11.68,1.87,13.08.56,12.49-6.58-4.92-58.84-10.75-117.68-12.77-176.56-3.71-108.04-9.63-216.06-12.39-324.14Zm267.06,40.12c0-81.44.16-162.89-.05-244.33-.17-65.49-.7-130.97-1.47-196.46-.05-4.08,5.5-11-8.29-11.32-9.87-.23-16.68-2.58-22.53-7.03-4.92-3.74-11.7-3.9-18.61-2.29-8.07,1.88-8.39,6.24-7.64,10.33,6.95,37.86,4.18,75.96,7.55,113.92,4.18,46.95,5.52,93.99,7.86,141,4.42,88.73,8.86,177.45,12.92,266.19,2.66,58.07,4.81,116.15,6.91,174.23,2.34,64.64,4.23,129.28,6.86,193.91.15,3.72-6.83,10.89,11.1,10.25,13.7-.49,16.97-2.31,16.07-10.11-1.88-16.32-3.18-32.7-3.25-49.06-.57-129.75-7.02-259.47-7.44-389.22Zm238.59,462.36c4-8.15-1.65-14.76-1.91-21.58-2.31-60.55-6.3-121.08-7.2-181.63-3.48-234.13.3-468.26,3.36-702.38.19-14.58.32-14.55-21.74-10.73-3.25.56-7.02,1.34-10.03.86-14.68-2.36-13.73,3.16-13.34,8.85,6.02,87.55,3.06,175.16,4.78,262.74,3.41,173.13,4.71,346.27,6.7,519.41.41,36.02-.1,72.04.19,108.06.03,3.51-4.1,10.48,5.5,9.76,13.52-1.01,23.24,2.28,33.7,6.65Zm-162.34-455c2.48,139.19,6.31,278.38,5.21,417.58-.09,11.05-.08,22.12-.82,33.16-.76,11.32,15.1,5.4,22.44,7.28,10.8,2.76,6.57-4.03,6.35-6.82-.87-11.03-3.31-22.02-3.76-33.05-2.8-67.51-6.53-135.03-7.51-202.55-3.13-214.54-.23-429.06,5.4-643.58.33-12.69,1.17-25.37,1.57-38.06.06-1.87.88-4.3-3.43-5.14-4.04-.79-6.31.83-8.11,2.64-3.54,3.57-7.42,7.96-14.31,8.21-17.44.64-16.04,7.32-15.83,14.61,4.38,148.57,8.57,297.15,12.79,445.72Z"/>
    <path d="m1535.25,115.85V44.54c7.84,23.72,7.03,47.5,5.14,71.28-1.71.01-3.43.02-5.14.03Z"/>
    <path d="m1297.26,39.24c6.94,24.48,7.9,48.99,0,73.54V39.24Z"/>
    <path d="m1321.41,110.93V38.11c4.2,24.3,4.77,48.61,0,72.82Z"/>
  </g>
  <g>
    <path d="m718.72,4.54c4.59-5.26,34.42-2.4,49.5,3.12,10.81,3.96,19.78,3.45,30.27-1.01,16.03-6.81,33.23-7.49,50.09-.17,11.45,4.98,23.11,6.4,36.27,1.44,13.29-5.01,27.84-4.48,41.84-.82,14.14,3.7,27.91,4.11,42.04.11,10.35-2.93,22.39-4.26,32.43-2.01,19.71,4.42,36.88,2.87,54.75-2.91,10.89-3.53,22.94-2.91,33.6,1.3,12.27,4.85,24.28,5.27,36.78.3,3.39-1.35,8.21-3.33,11.25-2.79,32.5,5.79,66.4-.39,98.68,4.21,10.09,1.44,18.16,3.07,26.99-1.08,3.17-1.49,8.03-3.54,11.03-3.04,26.06,4.38,52.73.38,78.85,2.54,1.85.15,4.23,2.14,5.1,1.86,28.19-8.93,58.65,4.23,86.87-3.21,21.35-5.63,40.43.55,41.11,14.07,1.78,35.27,2.97,70.56,13.68,105.41,1.2,3.9.37,5.51-7.44,6.4-33.65,3.83-36.23,6.56-35.86,26.59,2.31,124.97,4.03,249.94,6.46,374.9,3.4,175.11,7.2,350.22,11.07,525.33.18,8.15-1.57,10.68-15.82,6.02-27.27-8.92-32.35-7.98-54.41,5.76-13.25,8.26-36.74,10.92-55.72,6.58-10.62-2.43-18.97-6.59-27.16-11.09-23.5-12.9-29.12-12.02-39.96,6.19-5.48,9.21-15.98,14.21-32.65,14.04-19.89-.19-38.05-2.74-52.17-12.18-15.89-10.61-23.8-9.98-36.22,1.82-8.52,8.1-21.85,6.35-33.55,4.45-15.69-2.55-24.82-9.79-31.07-18.56-3.55-4.98-4.91-12.83-17.55-11.62-11.24,1.08-12.41,8.55-13.62,14-2.75,12.48-14.54,19.95-33.51,24.29-25.15,5.75-44.83.96-55.25-14-5.46-7.83-13.77-13.92-28.32-14.13-12.79-.19-22.24,3.37-29.23,11.15-13.94,15.5-52.21,19.56-71.08,7.12-18.77-12.37-38.23-11.79-59.45-5.2-16.18,5.02-20.31,2.07-21.3-7.64-5.25-51.34-1.81-102.75-4.11-154.11-4.62-103.16-1.63-206.36-3.17-330.66,0-130.18-.15-281.47.35-432.77.03-9.83-4.35-13.29-21.02-12.14-3.51.24-7.05.29-10.49.07-12.35-.79-21.05-7.65-20.53-15.01,1.87-26.72,9.05-109.94,11.68-112.96Zm-6.71,104.14c1.77,17.56,8.77,23.01,37.29,18.84,25.62-3.74,48.9-8.79,73.88.71,6.49,2.47,16.34.96,23.94-1.63,6.08-2.07,12.25-3.95,19.53-3.55,10.38.57,10.1-2.8,9.96-7.66-.74-25.48-.75-50.97-.68-76.45,0-3.07-2.36-6.93,3.68-9.85,6.15,5.24,3.56,10.32,3.85,15.08,1.56,25.86-1.13,51.73,2.38,77.63,1.51,11.16,10.22,12.26,25.17,11.94,16.46-.35,23.05-4.36,23.13-14.4.23-28.24-7.69-56.37-2.54-84.7,10.6,27.06,6.95,55.03,13.82,82.36,1.95-13.38,1.61-26.69,2.05-39.99.43-12.92-2.61-26.06,4.92-38.68,2.67,23.08,2.02,46.09,2.86,69.07.83,22.77,27.13,31.11,60.28,19.69,5.36-1.85,10.51-4.37,17.13-3.89,12.69.91,14.26-2.68,13.98-9.35-.87-20.59-.32-41.2-.32-61.8,3.01,1.01,3.6,2.1,3.99,3.2,7.53,21.54.89,43.53,5.94,65.13,1.31,5.61-.32,13.57,16.01,12.61,14.14-.83,20.11-5.75,19.9-14.2-.58-23.84-.53-47.68-.86-71.52-.09-6.56-5.64-13.04-1.61-20.45,8.52,5.01,5.9,10.65,6.45,15.77,2.5,23.37,5.22,46.74,3.93,70.18-.26,4.66,1.15,8.12,11.03,7.98,10.95-.16,9.4-4.69,9.22-8.73-.07-1.62-1.17-3.23-1.38-4.86-3.74-28.7-1.17-57.37-2.09-88.14,10.19,5.54,7.86,10.36,7.84,14.56-.14,28.77.71,57.51,4.04,86.23.9,7.75,1.9,13.97,18.49,14.03,17.33.06,20-6.04,19.85-14.6-.45-25.07-.29-50.15.09-75.23.06-3.86-3.53-8.86,7.65-12.29,0,12.58-.01,24.04,0,35.51.02,14.8-.23,29.6.3,44.4.12,3.39-3.99,9.3,8.07,8.87,10.85-.39,7.23-5.72,7.83-9.45.26-1.63-.01-3.29-.01-4.93,0-27.85,0-55.7,0-85.03,7.01,3.74,4.75,6.71,4.79,9.32.46,29.59.65,59.19,1.07,88.79.12,8.67,3.63,15.03,22.43,14.34,18.07-.67,18.59-6.96,18.46-15.13-.46-28.67-.18-57.34-.18-86,4.04,4.27,3.87,8.6,4.07,12.92,1.07,23.82,2.17,47.65,3.44,71.47.16,3-2.02,7.65,6.21,7.6,8.6-.06,11.46-3.82,9.67-8.72-.44-1.2-.86-2.44-.87-3.66-.05-27.36-.04-54.73-.04-82.09,6.86,19.37,5.58,39.02,6.23,58.61.4,11.9-.42,23.78,3.21,35.65,1.92,6.28,7.87,8.33,16.84,8.54,9.14.22,14.04-2.93,14.72-8.27.84-6.54,2.08-13.09,2.07-19.63-.05-28.27-5.35-56.51-1.12-84.88,9.25,15.94,2.48,32.97,12.35,49.13v-32.71c4.64,2.98,5.02,5.77,4.58,8.52-4.38,27.11-.73,54.18.93,81.26.54,8.72,9.86,9.49,21.1,9.8,13.51.38,13.85-4.8,13.79-10.51-.04-4.11.4-8.22.41-12.33.04-28.71.02-57.43.02-86.14,10.89,32.25,5.31,65.15,11.1,97.71,7.31-30.62.2-61.73,10.26-92.15-.3,30.04.45,60,1.16,89.97.26,10.86,11.03,12.03,23.72,12.41,14.39.43,16.16-5.57,15.92-12.44-.54-14.79-.7-29.58-.84-44.37-.13-13.25-.03-26.5-.03-39.75,1.17-.02,2.33-.03,3.5-.05,2.32,27.72,4.64,55.45,6.96,83.17,1.83-.06,3.65-.13,5.48-.19,2.72-30.3-4-60.78,2.66-91.01,2.19,4.07,2.02,8.12,2.22,12.16,1.3,26.28,2.37,52.57,4.19,78.84.82,11.84,7.22,12.84,24.97,8.1,19.54-5.22,26.62-12.08,21.04-24.63-3.66-8.22-3.87-16.99-5.01-25.58-2.68-20.1-3.53-40.19-4.09-60.32-.29-10.24-12.29-17.14-24.08-13.14-18.43,6.25-35.11,5.1-53.28,1.11-8.89-1.95-17.93-.64-25.91,2.25-8.52,3.08-15.59.98-24.55.04-24.15-2.53-49.99-2.45-73.7-1.71-18.03.56-35.02,1.37-53.72.94-26.46-.6-53.8-2.85-78.9-1.8-24.69,1.03-47.8,7.8-71.64-1.61-.95-.38-3.06-.35-4.05.02-26.3,10.02-54.57,7.6-83.11,5.13-5-.43-10.75,1.31-15.88,2.48-15.74,3.58-31.22,3.43-46.36-.9-11.56-3.31-22.91-3.24-33.76.59-15.51,5.48-30.39,5.1-44.46-1.35-14.16-6.49-27.85-6.09-41.81-.05-12.46,5.39-25.26,6.2-38.54,1.03-13.28-5.17-27.03-5.54-41.28-1.45m466.28,124.67c0,69.61.58,137.41-.11,205.2-2.07,204.3-4.54,408.61,2.45,612.89,1.22,35.68,2.26,71.48,10.36,106.94,2.96,12.95,22.37,19.48,47.55,17.9,17.67-1.11,24.8-7.21,25.09-21.48.05-2.47.07-4.93.05-7.4-2.83-274.19-5.65-548.38-8.49-822.56-.3-28.77-.73-57.54-1.02-86.31-.04-4.19-.15-8.55-6.27-11.2-4.78-2.07-9.73.24-13.01,2.11-15.61,8.9-33.56,7.88-56.6,3.93Zm-242.63-9.4c1.05,6.98,2.33,12.19,2.55,17.41,2.06,47.24,1.34,94.5,3.96,141.76,4.69,84.61,5.74,169.29,8.32,253.93,3.15,103.55,6.1,207.11,9.55,310.66,2.34,70.26,5.3,140.52,8.23,210.78.57,13.6,14,22.35,32.99,22.43,20.61.08,41.31-10.39,43-22.18.93-6.52,1.09-13.11.85-19.66-4.79-127.78-9.28-255.57-14.7-383.34-4.91-115.83-10.96-231.64-16.26-347.47-1.9-41.49-2.91-82.99-4.67-124.48-.63-14.78-2.19-29.55-3.54-44.32-.26-2.85,1.92-8.09-7.53-6.06-23.18,4.98-40.96-2.15-62.75-9.47Zm449.43,481.29c-2.06-48.66-1.34-90.96-3.04-133.28-3.71-92.82-4.19-185.68-6.28-278.51-.38-16.83-2.72-33.65-3-50.49-.11-6.67-7.56-9.8-14.68-12.29-7.9-2.76-6.37,3.72-9.97,5.58-4.15,2.15-8.67,2.84-13.4,2.36-19.98-2.05-21.82,4.37-21.74,14.05.27,34.92-1.12,69.84-1.29,104.76-.83,172.16-2.37,344.31-1.82,516.47.3,92.8-.22,185.65,11.26,278.33,1.13,9.16,8.19,13.61,20.77,16.01,28.53,5.45,50.61-4.35,50.74-21.98,1.09-149.15-4.15-298.26-7.55-441.01ZM874.41,217.57c-.82,0-1.65,0-2.47-.01,0-26.69-.47-53.39.23-80.07.29-10.9-5.83-12.51-20.35-6.91-6.65,2.56-14.74,3.77-21.91,2.9-19.3-2.34-21.02,3.35-18.37,12.24.95,3.19.31,6.56.38,9.85,2.57,121.61,4.88,243.22,7.8,364.82,2.32,96.54,4.84,193.07,8.34,289.6,2.46,67.75,6.44,135.48,10.35,203.21.92,15.96,3.34,31.95,6.87,47.78,3.15,14.14,20.33,19.53,43.33,14.87,21.48-4.35,27.97-9.98,26.96-29.37-2.38-45.99-3.2-91.99-5.59-137.99-5.94-114.13-14.5-228.19-20.96-342.3-6.58-116.17-9.87-232.41-14.6-348.63Zm275.12,387.9c-3.88-149.13-7.9-298.25-11.33-447.39-.24-10.58-2.78-19.51-14.94-27.95-8.7-6.04-15.52-5.73-24.15-1.64-12.03,5.7-13.21,13.57-13.06,22.18,3.08,179.15,1.1,358.31,5.03,537.47,2.62,119.14,2.79,238.31,8.7,357.43.43,8.7,4.54,16.13,15.53,21.94,9.34,4.93,20.34,7.69,32.46,4.61,11.03-2.8,6.57-9.3,6.67-14.27,2.93-150.81-2.22-301.59-4.9-452.37Zm-179.23,449.98c-9.37-307.53-18.73-614.44-28.14-923.1-17.04,6.21-32.15,7.72-47.19,5.5-13.67-2.02-15.64.58-15.36,8.06,1.89,50.53,2.24,101.09,4.55,151.61,5.1,111.72,10.23,223.45,17.07,335.14,2.66,43.51,4.74,87.05,8.15,130.54,7.04,89.9,11.36,179.83,13.66,269.81.16,6.09-3.56,13.03,2.65,18.06,6.04,4.9,16.92.09,25.44,1.39,5.95.91,11.89,1.85,19.18,2.99Zm485.22-495.25c-1.64-99.41-3.89-236.67-6.17-373.93-.22-13.15-1.29-26.31-.57-39.44.4-7.2-6.02-11.94-13.83-15.63-10.39-4.91-10.6,4.08-16.7,5.51-2.57.6-5.14,1.86-7.64,1.8-20.74-.52-19.87,7.51-19.56,16.19,2.9,81.75,5.77,163.49,8.08,245.25,2.99,105.59,5.94,211.19,8.05,316.79,2.12,106.03,3.37,212.06,4.43,318.09.11,10.67-2.88,20.82,24.54,16.33,2.88-.47,6.98.5,9.9,1.46,20.32,6.69,19.99-.53,19.79-9.52-3.36-148.35-6.41-296.7-10.33-482.9Zm-645.77-8.56c0-18.48.2-36.97-.03-55.45-1.52-118.79-3.19-237.59-4.58-356.38-.09-7.71-1.01-14.67-17.79-14.09-14.99.52-21.81,5.85-21.07,14.88.68,8.21.69,16.44.7,24.66.41,288.17-2.07,576.34,4.6,864.49.24,10.27.64,20.54,1.19,30.81.32,6.02,4.27,8.35,14.09,4.6,10.94-4.17,23.34-6.13,35.76-4.16,11.85,1.88,13.28.57,12.67-6.61-4.99-59.08-10.91-118.16-12.96-177.28-3.77-108.48-9.77-216.94-12.57-325.46Zm270.99,40.28c0-81.78.16-163.55-.05-245.33-.17-65.76-.71-131.51-1.49-197.26-.05-4.09,5.58-11.05-8.42-11.36-10.02-.23-16.93-2.6-22.86-7.06-4.99-3.75-11.87-3.92-18.88-2.3-8.19,1.89-8.51,6.27-7.75,10.37,7.05,38.02,4.24,76.27,7.67,114.38,4.24,47.14,5.6,94.38,7.97,141.57,4.48,89.09,8.99,178.18,13.12,267.28,2.7,58.31,4.88,116.63,7.01,174.95,2.37,64.9,4.29,129.81,6.96,194.71.15,3.74-6.93,10.94,11.27,10.3,13.91-.49,17.22-2.32,16.3-10.15-1.91-16.39-3.22-32.84-3.3-49.26-.58-130.28-7.12-260.53-7.54-390.82Zm242.11,464.25c4.06-8.18-1.67-14.82-1.94-21.67-2.35-60.79-6.39-121.58-7.31-182.38-3.54-235.09.3-470.18,3.41-705.26.19-14.64.32-14.61-22.06-10.78-3.3.56-7.13,1.35-10.18.86-14.9-2.37-13.93,3.18-13.54,8.89,6.11,87.91,3.1,175.88,4.85,263.81,3.46,173.84,4.78,347.69,6.8,521.54.42,36.17-.11,72.34.2,108.51.03,3.52-4.16,10.52,5.58,9.8,13.72-1.01,23.59,2.29,34.19,6.67Zm-164.73-456.86c2.51,139.76,6.4,279.52,5.28,419.29-.09,11.1-.08,22.21-.83,33.29-.77,11.37,15.32,5.42,22.77,7.31,10.96,2.78,6.66-4.04,6.44-6.84-.88-11.07-3.36-22.11-3.82-33.19-2.84-67.79-6.62-135.58-7.62-203.38-3.18-215.42-.23-430.82,5.48-646.21.34-12.74,1.19-25.47,1.59-38.21.06-1.87.89-4.32-3.48-5.17-4.1-.8-6.4.83-8.23,2.65-3.59,3.58-7.53,7.99-14.52,8.25-17.7.65-16.28,7.35-16.06,14.67,4.44,149.18,8.69,298.36,12.98,447.55Z"/>
    <path d="m1014.21,109.32V37.72c7.96,23.82,7.13,47.69,5.22,71.57-1.74.01-3.48.02-5.22.03Z"/>
    <path d="m772.71,32.4c7.04,24.58,8.02,49.19,0,73.84V32.4Z"/>
    <path d="m797.22,104.39V31.27c4.27,24.4,4.84,48.81,0,73.12Z"/>
  </g>
</svg>