<?xml version="1.0" encoding="UTF-8"?>
<svg id="b" data-name="Calque 2" xmlns="http://www.w3.org/2000/svg" viewBox="0 0 58.01 105.39">
  <g id="c" data-name="Calque 1">
    <path d="m57.67,12.79c-.79.75-2.42.61-3.12-.21-.43-.5-.73-.48-1.16-.05-1.17,1.16-2.29,1.26-3.58.28-.55-.42-.94-.21-1.51-.07-1.87.44-1.96,1.87-2.27,3.35-2.13,10.18-6.07,19.58-12.51,27.82-4.8,6.13-10.7,10.95-17.69,14.42-.75.37-1.07.69-1.02,1.74.28,5.67,1.65,11.16,2.68,16.7,1.29,6.92,2.59,13.83,3.9,20.74.18.94.41,1.86.61,2.79.55,2.52-1.63,4.68-4.13,4.07-.51-.12-.9-.44-1.23-.89-.8-1.08-1.55-1.01-2.11.18-.38.8-.84,1.47-1.84,1.45-.97-.02-1.37-.69-1.61-1.51-.09-.31-.24-.64-.6-.67-.38-.02-.48.3-.62.61-.48,1.12-2.44,2.08-3.61,1.78-.62-.16-.96-.59-.93-1.23.06-1.13-.48-.97-1.17-.58-.69.4-1.33.89-2.09,1.16-1.34.47-1.99.06-2.03-1.33-.13-4.4.24-8.78.65-13.16.43-4.57.83-9.14,1.29-13.7.49-4.76,1.04-9.52,1.56-14.27.14-1.27.28-2.54.42-3.81.02-.16.08-.4.01-.46-1.22-1.03-.74-2.51-.45-3.51.95-3.29-.19-6.46-.18-9.68,0-3.31-.42-6.62-.58-9.93-.29-5.95-.53-11.9-.8-17.85-.03-.76-.15-1.52-.12-2.27.04-.92-.24-1.51-1.18-1.76-.47-.13-.62-.51-.62-1.02C0,8.41.06,4.89.24,1.38c.02-.48.25-.73.64-.9.65-.29,1.32-.31,1.98-.07,1.17.43,2.28.51,3.45-.12.92-.5,1.89-.09,2.74.35.82.43,1.59.49,2.38,0,.97-.61,1.97-.59,2.97-.1.62.31,1.21.35,1.83.03C17.36,0,18.49.05,19.55.7c.72.44,1.36.36,2.02-.03,1.05-.61,2.09-.67,3.2-.12.85.43,1.74.19,2.56-.1,1.02-.36,1.96-.49,2.97.09.72.41,1.56.36,2.32,0,.9-.43,1.78-.4,2.66,0,.63.28,1.2.34,1.81-.08.85-.59,1.76-.55,2.58,0,.66.43,1.25.4,1.91.08,1.05-.52,2.1-.79,3.14.05.38.31.77.08,1.11-.13,1.04-.64,2.05-.61,3,.15.54.43,1.08.42,1.67.14.52-.25,1.1-.44,1.63-.25,1.25.47,2.4.35,3.54-.28.49-.27,1.09-.23,1.49.11,1.54,1.33.51,12.47.51,12.47Z"/>
  </g>
</svg>