<?xml version="1.0" encoding="UTF-8"?>
<svg id="b" data-name="Calque 2" xmlns="http://www.w3.org/2000/svg" viewBox="0 0 45.77 105.77">
  <g id="c" data-name="Calque 1">
    <g>
      <path d="m.68.44c.26-.51,1.99-.23,2.86.3.62.38,1.14.34,1.75-.1.93-.66,1.92-.73,2.89-.02.66.48,1.33.62,2.09.14.77-.49,1.61-.44,2.41-.08.82.36,1.61.4,2.43.01.6-.29,1.29-.41,1.87-.2,1.14.43,2.13.28,3.16-.28.63-.34,1.32-.28,1.94.13.71.47,1.4.51,2.12.03.2-.13.47-.32.65-.27,1.88.56,3.83-.04,5.69.41.58.14,1.05.3,1.56-.11.18-.14.46-.34.64-.3,1.5.43,3.04.04,4.55.25.11.01.24.21.29.18,1.63-.87,3.38.41,5.01-.31,1.23-.55,2.33.05,2.37,1.37.1,3.43.17,6.86.79,10.26.07.38.02.54-.43.62-1.94.37-2.09.64-2.07,2.59.13,12.16.23,24.32.37,36.47.2,17.04.42,34.07.64,51.11.01.79-.09,1.04-.91.59-1.57-.87-1.87-.78-3.14.56-.76.8-2.12,1.06-3.21.64-.61-.24-1.09-.64-1.57-1.08-1.36-1.25-1.68-1.17-2.31.6-.32.9-.92,1.38-1.88,1.37-1.15-.02-2.2-.27-3.01-1.18-.92-1.03-1.37-.97-2.09.18-.49.79-1.26.62-1.94.43-.91-.25-1.43-.95-1.79-1.81-.2-.48-.28-1.25-1.01-1.13-.65.1-.72.83-.79,1.36-.16,1.21-.84,1.94-1.93,2.36-1.45.56-2.59.09-3.19-1.36-.31-.76-.79-1.35-1.63-1.37-.74-.02-1.28.33-1.69,1.08-.8,1.51-3.01,1.9-4.1.69-1.08-1.2-2.21-1.15-3.43-.51-.93.49-1.17.2-1.23-.74-.3-4.99-.1-10-.24-14.99-.27-10.04-.09-20.08-.18-32.17,0-12.66,0-27.38.02-42.1,0-.96-.25-1.29-1.21-1.18-.2.02-.41.03-.61,0C.47,12.81-.03,12.15,0,11.43.11,8.83.52.74.68.44Zm-.39,10.13c.1,1.71.51,2.24,2.15,1.83,1.48-.36,2.82-.85,4.26.07.37.24.94.09,1.38-.16.35-.2.71-.38,1.13-.35.6.06.58-.27.57-.75-.04-2.48-.04-4.96-.04-7.44,0-.3-.14-.67.21-.96.35.51.21,1,.22,1.47.09,2.52-.06,5.03.14,7.55.09,1.09.59,1.19,1.45,1.16.95-.03,1.33-.42,1.33-1.4.01-2.75-.44-5.48-.15-8.24.61,2.63.4,5.35.8,8.01.11-1.3.09-2.6.12-3.89.02-1.26-.15-2.53.28-3.76.15,2.25.12,4.48.16,6.72.05,2.22,1.56,3.03,3.48,1.92.31-.18.61-.42.99-.38.73.09.82-.26.81-.91-.05-2-.02-4.01-.02-6.01.17.1.21.2.23.31.43,2.1.05,4.24.34,6.34.08.55-.02,1.32.92,1.23.82-.08,1.16-.56,1.15-1.38-.03-2.32-.03-4.64-.05-6.96,0-.64-.33-1.27-.09-1.99.49.49.34,1.04.37,1.53.14,2.27.3,4.55.23,6.83-.01.45.07.79.64.78.63-.02.54-.46.53-.85,0-.16-.07-.31-.08-.47-.22-2.79-.07-5.58-.12-8.57.59.54.45,1.01.45,1.42,0,2.8.04,5.6.23,8.39.05.75.11,1.36,1.07,1.37,1,0,1.15-.59,1.15-1.42-.03-2.44-.02-4.88,0-7.32,0-.38-.2-.86.44-1.2,0,1.22,0,2.34,0,3.45,0,1.44-.01,2.88.02,4.32,0,.33-.23.91.47.86.63-.04.42-.56.45-.92.02-.16,0-.32,0-.48,0-2.71,0-5.42,0-8.27.4.36.27.65.28.91.03,2.88.04,5.76.06,8.64,0,.84.21,1.46,1.29,1.4,1.04-.06,1.07-.68,1.07-1.47-.03-2.79-.01-5.58-.01-8.37.23.42.22.84.23,1.26.06,2.32.13,4.64.2,6.95,0,.29-.12.74.36.74.5,0,.66-.37.56-.85-.03-.12-.05-.24-.05-.36,0-2.66,0-5.32,0-7.99.4,1.88.32,3.8.36,5.7.02,1.16-.02,2.31.18,3.47.11.61.45.81.97.83.53.02.81-.29.85-.8.05-.64.12-1.27.12-1.91,0-2.75-.31-5.5-.06-8.26.53,1.55.14,3.21.71,4.78v-3.18c.27.29.29.56.26.83-.25,2.64-.04,5.27.05,7.91.03.85.57.92,1.22.95.78.04.8-.47.8-1.02,0-.4.02-.8.02-1.2,0-2.79,0-5.59,0-8.38.63,3.14.31,6.34.64,9.51.42-2.98.01-6.01.59-8.97-.02,2.92.03,5.84.07,8.75.01,1.06.64,1.17,1.37,1.21.83.04.93-.54.92-1.21-.03-1.44-.04-2.88-.05-4.32,0-1.29,0-2.58,0-3.87.07,0,.13,0,.2,0,.13,2.7.27,5.39.4,8.09l.32-.02c.16-2.95-.23-5.91.15-8.85.13.4.12.79.13,1.18.08,2.56.14,5.11.24,7.67.05,1.15.42,1.25,1.44.79,1.13-.51,1.54-1.18,1.21-2.4-.21-.8-.22-1.65-.29-2.49-.15-1.96-.2-3.91-.24-5.87-.02-1-.71-1.67-1.39-1.28-1.06.61-2.03.5-3.07.11-.51-.19-1.03-.06-1.5.22-.49.3-.9.09-1.42,0-1.39-.25-2.88-.24-4.25-.17-1.04.05-2.02.13-3.1.09-1.53-.06-3.1-.28-4.55-.18-1.42.1-2.76.76-4.13-.16-.05-.04-.18-.03-.23,0-1.52.97-3.15.74-4.79.5-.29-.04-.62.13-.92.24-.91.35-1.8.33-2.67-.09-.67-.32-1.32-.32-1.95.06-.89.53-1.75.5-2.56-.13-.82-.63-1.61-.59-2.41,0-.72.52-1.46.6-2.22.1-.77-.5-1.56-.54-2.38-.14m26.9,12.13c0,6.77.03,13.37,0,19.96-.12,19.88-.26,39.75.14,59.63.07,3.47.13,6.95.6,10.4.17,1.26,1.29,1.9,2.74,1.74,1.02-.11,1.43-.7,1.45-2.09,0-.24,0-.48,0-.72-.16-26.68-.33-53.35-.49-80.03-.02-2.8-.04-5.6-.06-8.4,0-.41,0-.83-.36-1.09-.28-.2-.56.02-.75.2-.9.87-1.94.77-3.27.38Zm-14-.91c.06.68.13,1.19.15,1.69.12,4.6.08,9.19.23,13.79.27,8.23.33,16.47.48,24.7.18,10.07.35,20.15.55,30.22.14,6.84.31,13.67.47,20.51.03,1.32.81,2.17,1.9,2.18,1.19,0,2.38-1.01,2.48-2.16.05-.63.06-1.28.05-1.91-.28-12.43-.54-24.86-.85-37.29-.28-11.27-.63-22.54-.94-33.8-.11-4.04-.17-8.07-.27-12.11-.04-1.44-.13-2.87-.2-4.31-.02-.28.11-.79-.43-.59-1.34.48-2.36-.21-3.62-.92Zm25.93,46.82c-.12-4.73-.08-8.85-.18-12.97-.21-9.03-.24-18.06-.36-27.1-.02-1.64-.16-3.27-.17-4.91,0-.65-.44-.95-.85-1.2-.46-.27-.37.36-.58.54-.24.21-.5.28-.77.23-1.15-.2-1.26.42-1.25,1.37.02,3.4-.06,6.79-.07,10.19-.05,16.75-.14,33.5-.1,50.25.02,9.03-.01,18.06.65,27.08.07.89.47,1.32,1.2,1.56,1.65.53,2.92-.42,2.93-2.14.06-14.51-.24-29.02-.44-42.91ZM9.66,21.17s-.1,0-.14,0c0-2.6-.03-5.19.01-7.79.02-1.06-.34-1.22-1.17-.67-.38.25-.85.37-1.26.28-1.11-.23-1.21.33-1.06,1.19.06.31.02.64.02.96.15,11.83.28,23.66.45,35.49.13,9.39.28,18.78.48,28.17.14,6.59.37,13.18.6,19.77.05,1.55.19,3.11.4,4.65.18,1.38,1.17,1.9,2.5,1.45,1.24-.42,1.61-.97,1.56-2.86-.14-4.47-.18-8.95-.32-13.42-.34-11.1-.84-22.2-1.21-33.3-.38-11.3-.57-22.61-.84-33.92Zm15.87,37.74c-.22-14.51-.46-29.02-.65-43.53-.01-1.03-.16-1.9-.86-2.72-.5-.59-.9-.56-1.39-.16-.69.55-.76,1.32-.75,2.16.18,17.43.06,34.86.29,52.29.15,11.59.16,23.18.5,34.77.02.85.26,1.57.9,2.13.54.48,1.17.75,1.87.45.64-.27.38-.9.38-1.39.17-14.67-.13-29.34-.28-44.01Zm-10.34,43.78c-.54-29.92-1.08-59.78-1.62-89.81-.98.6-1.85.75-2.72.53-.79-.2-.9.06-.89.78.11,4.92.13,9.83.26,14.75.29,10.87.59,21.74.98,32.61.15,4.23.27,8.47.47,12.7.41,8.75.66,17.5.79,26.25,0,.59-.21,1.27.15,1.76.35.48.98,0,1.47.14.34.09.69.18,1.11.29Zm27.99-48.18c-.09-9.67-.22-23.03-.36-36.38-.01-1.28-.07-2.56-.03-3.84.02-.7-.35-1.16-.8-1.52-.6-.48-.61.4-.96.54-.15.06-.3.18-.44.17-1.2-.05-1.15.73-1.13,1.57.17,7.95.33,15.91.47,23.86.17,10.27.34,20.55.46,30.82.12,10.32.19,20.63.26,30.95,0,1.04-.17,2.03,1.42,1.59.17-.05.4.05.57.14,1.17.65,1.15-.05,1.14-.93-.19-14.43-.37-28.87-.6-46.98Zm-37.26-.83c0-1.8.01-3.6,0-5.4-.09-11.56-.18-23.11-.26-34.67,0-.75-.06-1.43-1.03-1.37-.86.05-1.26.57-1.22,1.45.04.8.04,1.6.04,2.4.02,28.04-.12,56.07.27,84.11.01,1,.04,2,.07,3,.02.59.25.81.81.45.63-.41,1.35-.6,2.06-.4.68.18.77.06.73-.64-.29-5.75-.63-11.5-.75-17.25-.22-10.55-.56-21.11-.73-31.66Zm15.63,3.92c0-7.96,0-15.91,0-23.87-.01-6.4-.04-12.79-.09-19.19,0-.4.32-1.07-.49-1.11-.58-.02-.98-.25-1.32-.69-.29-.37-.68-.38-1.09-.22-.47.18-.49.61-.45,1.01.41,3.7.24,7.42.44,11.13.24,4.59.32,9.18.46,13.77.26,8.67.52,17.33.76,26,.16,5.67.28,11.35.4,17.02.14,6.31.25,12.63.4,18.94,0,.36-.4,1.06.65,1,.8-.05.99-.23.94-.99-.11-1.59-.19-3.19-.19-4.79-.03-12.67-.41-25.35-.44-38.02Zm13.97,45.17c.23-.8-.1-1.44-.11-2.11-.14-5.91-.37-11.83-.42-17.74-.2-22.87.02-45.74.2-68.61.01-1.42.02-1.42-1.27-1.05-.19.05-.41.13-.59.08-.86-.23-.8.31-.78.86.35,8.55.18,17.11.28,25.67.2,16.91.28,33.83.39,50.74.02,3.52,0,7.04.01,10.56,0,.34-.24,1.02.32.95.79-.1,1.36.22,1.97.65Zm-9.5-44.45c.15,13.6.37,27.19.3,40.79,0,1.08,0,2.16-.05,3.24-.04,1.11.88.53,1.31.71.63.27.38-.39.37-.67-.05-1.08-.19-2.15-.22-3.23-.16-6.6-.38-13.19-.44-19.79-.18-20.96-.01-41.91.32-62.87.02-1.24.07-2.48.09-3.72,0-.18.05-.42-.2-.5-.24-.08-.37.08-.47.26-.21.35-.43.78-.84.8-1.02.06-.94.71-.93,1.43.26,14.51.5,29.03.75,43.54Z"/>
      <path d="m17.72,10.64V3.67c.46,2.32.41,4.64.3,6.96-.1,0-.2,0-.3,0Z"/>
      <path d="m3.79,3.15c.41,2.39.46,4.79,0,7.18V3.15Z"/>
      <path d="m5.2,10.16V3.04c.25,2.37.28,4.75,0,7.11Z"/>
    </g>
  </g>
</svg>